<svg xmlns="http://www.w3.org/2000/svg" width="512" height="512" fill="none" viewBox="0 0 512 512"><g clip-path="url(#a)" transform="scale(7.11111)"><path fill="#00ee65" fill-rule="evenodd" d="M64.65 7.35c-2.48-2.48-5.607-4.319-9.062-5.214C53.484 1.248 47.245 0 36 0S18.524 1.248 16.412 2.136C12.957 3.03 9.838 4.87 7.35 7.35c-2.48 2.48-4.319 5.607-5.214 9.062C1.24 18.524 0 24.842 0 36s1.24 17.476 2.136 19.588c.887 3.455 2.735 6.574 5.214 9.062 2.48 2.48 5.607 4.319 9.062 5.214C18.524 70.753 24.627 72 36 72s17.476-1.24 19.588-2.135c3.455-.896 6.574-2.736 9.062-5.215 2.48-2.48 4.319-5.607 5.214-9.062C70.76 53.484 72 47.142 72 36c0-11.141-1.24-17.476-2.135-19.588-.896-3.455-2.736-6.574-5.215-9.062" clip-rule="evenodd"/><path fill="#002a19" d="M33.869 35.957v-6.571c.932-.214 1.864-.357 3.8-.357 6.454 0 11.689 5.143 11.689 11.643s-5.235 11.785-11.689 11.785-11.76-5.285-11.76-11.785V12.315h6.597v28.428c0 2.714 2.223 5 5.02 5s5.235-2.286 5.235-5-2.443-4.831-5.235-5a16 16 0 0 0-3.657.214"/><path fill="#002a19" d="M33.869 28.172v-6.643c1.004-.143 2.08-.357 3.872-.357 10.828 0 19.649 8.643 19.649 19.5S48.57 60.315 37.74 60.315c-10.828 0-19.72-8.715-19.72-19.643V12.315h6.597v28.428c0 7.214 5.737 13 13.051 13 7.315 0 13.123-5.786 13.123-13s-5.88-12.928-13.123-12.928c-1.72 0-2.868.214-3.8.357"/></g><defs><clipPath id="a"><path fill="#fff" d="M0 0h72v72H0z"/></clipPath></defs></svg>